<svg width="24" height="26" viewBox="0 0 24 26" fill="none" xmlns="http://www.w3.org/2000/svg">
<path d="M4.41668 16.3746C5.51841 16.3713 6.57845 15.9531 7.38558 15.2032L15.2707 19.7088C15.0066 20.7412 15.123 21.8342 15.5988 22.7877C16.0746 23.7412 16.878 24.4915 17.8617 24.9012C18.8455 25.3108 19.9439 25.3524 20.9558 25.0184C21.9678 24.6844 22.8256 23.9971 23.3722 23.0824C23.9189 22.1676 24.1177 21.0865 23.9325 20.0371C23.7472 18.9877 23.1901 18.0401 22.3633 17.3678C21.5365 16.6955 20.4951 16.3436 19.43 16.3763C18.3648 16.409 17.3471 16.8243 16.5631 17.546L8.67795 13.0404C8.76108 12.7255 8.80643 12.3993 8.81398 12.073L16.5606 7.64549C17.3065 8.32413 18.2631 8.72561 19.2699 8.78256C20.2768 8.83951 21.2726 8.54847 22.0902 7.95827C22.9079 7.36807 23.4978 6.51461 23.7608 5.54108C24.0238 4.56755 23.944 3.53318 23.5349 2.61149C23.1257 1.68981 22.4119 0.93689 21.5134 0.47905C20.6149 0.0212105 19.5863 -0.113695 18.6001 0.0969672C17.6139 0.307629 16.7301 0.851041 16.0971 1.63604C15.4641 2.42103 15.1203 3.39985 15.1234 4.40829C15.1284 4.77105 15.1775 5.13256 15.2707 5.48274L8.11112 9.57269C7.69592 8.93037 7.12077 8.40711 6.44216 8.05432C5.76355 7.70154 5.00483 7.53137 4.24056 7.56053C3.47628 7.58969 2.73274 7.81718 2.08298 8.22064C1.43323 8.62411 0.899611 9.18967 0.534565 9.86177C0.169518 10.5339 -0.0143998 11.2894 0.000880083 12.054C0.01616 12.8187 0.230112 13.5663 0.621716 14.2232C1.01332 14.8802 1.5691 15.424 2.23446 15.8012C2.89981 16.1784 3.65185 16.376 4.41668 16.3746V16.3746Z" fill="white"/>
</svg>
