<svg width="14" height="8" viewBox="0 0 14 8" fill="none" xmlns="http://www.w3.org/2000/svg">
<path d="M6.66005 0.217211L0.600324 6.27705C0.460056 6.4172 0.382782 6.6043 0.382782 6.8038C0.382782 7.00329 0.460056 7.19039 0.600324 7.33055L1.04648 7.77681C1.3372 8.0672 1.8097 8.0672 2.09998 7.77681L7.18857 2.68822L12.2828 7.78246C12.4231 7.92261 12.6101 8 12.8095 8C13.0091 8 13.196 7.92261 13.3364 7.78246L13.7825 7.33619C13.9227 7.19593 14 7.00894 14 6.80944C14 6.60995 13.9227 6.42285 13.7825 6.28269L7.7172 0.217211C7.57649 0.0767226 7.38862 -0.000440598 7.1889 1.90735e-06C6.98841 -0.000440598 6.80065 0.0767226 6.66005 0.217211Z"/>
</svg>
