<svg width="14" height="8" viewBox="0 0 14 8" fill="none" xmlns="http://www.w3.org/2000/svg">
<path d="M7.33992 7.78279L13.3996 1.72295C13.5399 1.5828 13.6172 1.3957 13.6172 1.1962C13.6172 0.996706 13.5399 0.809609 13.3996 0.669453L12.9535 0.223188C12.6628 -0.0671998 12.1903 -0.0671998 11.9 0.223188L6.8114 5.31178L1.71716 0.217542C1.57689 0.0773851 1.3899 0 1.19052 0C0.990911 0 0.803925 0.0773851 0.663547 0.217542L0.217504 0.663807C0.0772362 0.804074 -3.8147e-05 0.99106 -3.8147e-05 1.19056C-3.8147e-05 1.39005 0.0772362 1.57715 0.217504 1.71731L6.28277 7.78279C6.42348 7.92328 6.61135 8.00044 6.81107 8C7.01156 8.00044 7.19932 7.92328 7.33992 7.78279Z"/>
</svg>
