<svg width="24" height="31" viewBox="0 0 24 31" fill="none" xmlns="http://www.w3.org/2000/svg">
<path d="M22.4996 13.504C22.8671 13.5041 23.2218 13.639 23.4964 13.8832C23.7711 14.1274 23.9465 14.4639 23.9895 14.8288L24 15.0044V24.0066C24 25.5464 23.4082 27.0272 22.347 28.1429C21.2858 29.2585 19.8364 29.9237 18.2986 30.0006L17.9985 30.0081H6.0015C4.46175 30.0081 2.9809 29.4163 1.86525 28.3551C0.749595 27.2939 0.0844895 25.8445 0.00750205 24.3067L0 24.0066V15.0044C0.000424167 14.622 0.146855 14.2542 0.409375 13.9761C0.671894 13.698 1.03069 13.5307 1.41245 13.5083C1.7942 13.4858 2.17011 13.61 2.46336 13.8555C2.75662 14.1009 2.94508 14.4491 2.99025 14.8288L3.00075 15.0044V24.0066C3.00089 24.7634 3.28698 25.4922 3.80171 26.047C4.31643 26.6018 5.02178 26.9416 5.77644 26.9984L6.0015 27.0074H17.9985C18.7553 27.0072 19.4841 26.7212 20.0389 26.2064C20.5937 25.6917 20.9335 24.9864 20.9902 24.2317L20.9992 24.0066V15.0044C20.9992 14.6065 21.1573 14.2248 21.4387 13.9435C21.7201 13.6621 22.1017 13.504 22.4996 13.504ZM3.43436 7.93762L10.9317 0.440247C11.1899 0.181696 11.5335 0.0262346 11.8982 0.00303056C12.2628 -0.0201735 12.6234 0.0904751 12.9122 0.314216L13.0533 0.438747L20.5596 7.93612C20.8292 8.20587 20.986 8.56817 20.998 8.94936C21.0101 9.33054 20.8765 9.70201 20.6245 9.98825C20.3724 10.2745 20.0209 10.454 19.6412 10.4903C19.2616 10.5266 18.8824 10.417 18.5806 10.1837L18.4396 10.0592L13.4974 5.12442V19.8881C13.4973 20.2556 13.3624 20.6103 13.1182 20.8849C12.874 21.1595 12.5375 21.335 12.1725 21.378L11.997 21.3885C11.6295 21.3884 11.2748 21.2535 11.0002 21.0093C10.7256 20.7651 10.5501 20.4286 10.5071 20.0637L10.4966 19.8881V5.11692L5.55589 10.0592C5.29753 10.3175 4.9538 10.4727 4.58917 10.4956C4.22454 10.5185 3.86407 10.4076 3.57539 10.1837L3.43436 10.0592C3.17603 9.8008 3.02084 9.45706 2.99792 9.09243C2.97499 8.7278 3.08589 8.36733 3.30983 8.07866L3.43436 7.93612L10.9317 0.440247L3.43586 7.93612L3.43436 7.93762Z" fill="white"/>
</svg>
