<svg width="38" height="38" viewBox="0 0 38 38" fill="none" xmlns="http://www.w3.org/2000/svg">
<g filter="url(#filter0_d_10_153)">
<path d="M19 0C16.0333 0 13.1332 0.879734 10.6665 2.52796C8.19972 4.17618 6.27713 6.51885 5.14181 9.25975C4.0065 12.0006 3.70945 15.0166 4.28823 17.9263C4.86701 20.8361 6.29562 23.5088 8.3934 25.6066C10.4912 27.7044 13.1639 29.133 16.0737 29.7118C18.9834 30.2906 21.9994 29.9935 24.7403 28.8582C27.4811 27.7229 29.8238 25.8003 31.472 23.3335C33.1203 20.8668 34 17.9667 34 15C34 13.0302 33.612 11.0796 32.8582 9.25975C32.1044 7.43986 30.9995 5.78628 29.6066 4.3934C28.2137 3.00052 26.5601 1.89563 24.7403 1.14181C22.9204 0.387986 20.9698 0 19 0ZM23.5 16.5H20.5V19.5C20.5 19.8978 20.342 20.2794 20.0607 20.5607C19.7794 20.842 19.3978 21 19 21C18.6022 21 18.2206 20.842 17.9393 20.5607C17.658 20.2794 17.5 19.8978 17.5 19.5V16.5H14.5C14.1022 16.5 13.7206 16.342 13.4393 16.0607C13.158 15.7794 13 15.3978 13 15C13 14.6022 13.158 14.2206 13.4393 13.9393C13.7206 13.658 14.1022 13.5 14.5 13.5H17.5V10.5C17.5 10.1022 17.658 9.72064 17.9393 9.43934C18.2206 9.15803 18.6022 9 19 9C19.3978 9 19.7794 9.15803 20.0607 9.43934C20.342 9.72064 20.5 10.1022 20.5 10.5V13.5H23.5C23.8978 13.5 24.2794 13.658 24.5607 13.9393C24.842 14.2206 25 14.6022 25 15C25 15.3978 24.842 15.7794 24.5607 16.0607C24.2794 16.342 23.8978 16.5 23.5 16.5Z"/>
</g>
<defs>
<filter id="filter0_d_10_153" x="0" y="0" width="38" height="38" filterUnits="userSpaceOnUse" color-interpolation-filters="sRGB">
<feFlood flood-opacity="0" result="BackgroundImageFix"/>
<feColorMatrix in="SourceAlpha" type="matrix" values="0 0 0 0 0 0 0 0 0 0 0 0 0 0 0 0 0 0 127 0" result="hardAlpha"/>
<feOffset dy="4"/>
<feGaussianBlur stdDeviation="2"/>
<feComposite in2="hardAlpha" operator="out"/>
<feColorMatrix type="matrix" values="0 0 0 0 0 0 0 0 0 0 0 0 0 0 0 0 0 0 0.25 0"/>
<feBlend mode="normal" in2="BackgroundImageFix" result="effect1_dropShadow_10_153"/>
<feBlend mode="normal" in="SourceGraphic" in2="effect1_dropShadow_10_153" result="shape"/>
</filter>
</defs>
</svg>
