<svg width="31" height="32" viewBox="0 0 31 32" fill="none" xmlns="http://www.w3.org/2000/svg">
<path d="M30 27.6663H10M0 4.33301H6.66667H0ZM30 4.33301H13.3333H30ZM0 15.9997H20H0ZM30 15.9997H26.6667H30ZM0 27.6663H3.33333H0Z" stroke="white" stroke-width="2" stroke-linecap="round"/>
<path d="M9.99984 7.66667C11.8408 7.66667 13.3332 6.17428 13.3332 4.33333C13.3332 2.49238 11.8408 1 9.99984 1C8.15889 1 6.6665 2.49238 6.6665 4.33333C6.6665 6.17428 8.15889 7.66667 9.99984 7.66667Z" stroke="white" stroke-width="2" stroke-linecap="round"/>
<path d="M23.3333 19.3337C25.1743 19.3337 26.6667 17.8413 26.6667 16.0003C26.6667 14.1594 25.1743 12.667 23.3333 12.667C21.4924 12.667 20 14.1594 20 16.0003C20 17.8413 21.4924 19.3337 23.3333 19.3337Z" stroke="white" stroke-width="2" stroke-linecap="round"/>
<path d="M6.66683 30.9997C8.50778 30.9997 10.0002 29.5073 10.0002 27.6663C10.0002 25.8254 8.50778 24.333 6.66683 24.333C4.82588 24.333 3.3335 25.8254 3.3335 27.6663C3.3335 29.5073 4.82588 30.9997 6.66683 30.9997Z" stroke="white" stroke-width="2" stroke-linecap="round"/>
</svg>
