<svg width="260" height="242" viewBox="0 0 260 242" fill="none" xmlns="http://www.w3.org/2000/svg">
<path d="M171.745 169.062C232.459 115.151 279.501 44.3248 251.917 13.2596C243.167 3.41189 230.951 -1.15458 217.833 0.248448C206.821 1.45294 195.504 6.89299 184.095 16.0259C166.159 6.73413 146.14 2.19817 125.951 2.85167C105.762 3.50516 86.0783 9.32628 68.7812 19.7585C55.3347 27.7198 43.603 38.2719 34.2668 50.8028C24.9305 63.3337 18.1756 77.5939 14.3939 92.7559C8.49974 116.111 9.91344 140.712 18.4441 163.238C4.34761 179.161 -8.74294 211.908 7.55076 230.253C14.3939 237.943 24.1886 241.385 35.9688 241.385C71.799 241.385 126.08 209.631 171.745 169.062V169.062ZM220.706 26.5487C225.444 26.0986 229.071 27.3958 232.102 30.824C235.16 34.2786 234.339 43.3453 228.767 56.3565C222.78 47.2461 215.58 38.9945 207.364 31.8299C213.068 28.362 217.635 26.8928 220.706 26.5487V26.5487ZM32.3421 189.393C38.2276 197.929 45.205 205.659 53.0964 212.384C39.5293 216.395 30.4096 216.13 27.352 212.662C24.4798 209.446 27.3785 198.513 32.3421 189.393ZM248.224 111.71C232.142 135.495 209.759 160.3 184.981 182.298C159.383 205.051 131.163 224.76 104.903 237.917C113.051 239.71 121.364 240.651 129.707 240.723C151.234 240.7 172.35 234.835 190.805 223.754C209.978 212.404 225.545 195.858 235.706 176.03C245.867 156.201 250.207 133.902 248.224 111.71Z" fill="url(#paint0_linear_90_768)" fill-opacity="0.06"/>
<defs>
<linearGradient id="paint0_linear_90_768" x1="130" y1="0" x2="130" y2="241.385" gradientUnits="userSpaceOnUse">
<stop offset="0.395833" stop-color="white"/>
<stop offset="1"/>
</linearGradient>
</defs>
</svg>
